<?xml version="1.0" standalone="no"?>
<!DOCTYPE svg PUBLIC "-//W3C//DTD SVG 20010904//EN"
 "http://www.w3.org/TR/2001/REC-SVG-20010904/DTD/svg10.dtd">
<svg version="1.0" xmlns="http://www.w3.org/2000/svg"
 width="1280.000000pt" height="1070.000000pt" viewBox="0 0 1280.000000 1070.000000"
 preserveAspectRatio="xMidYMid meet">
<g transform="translate(0.000000,1070.000000) scale(0.100000,-0.100000)"
fill="#000000" stroke="none">
<path d="M2556 10684 c-25 -25 -20 -43 45 -154 77 -133 123 -224 153 -303 36
-94 102 -251 121 -286 11 -22 24 -110 40 -279 14 -136 34 -321 45 -412 39
-317 53 -1066 25 -1385 -8 -93 -20 -226 -25 -295 -32 -382 -168 -1129 -309
-1705 -38 -154 -91 -372 -116 -485 -89 -384 -198 -807 -262 -1005 -24 -77 -62
-210 -84 -295 -132 -512 -373 -1196 -590 -1675 -38 -84 -69 -162 -69 -172 0
-37 -42 -63 -126 -78 -88 -16 -131 -27 -162 -44 -24 -13 -46 -72 -37 -100 5
-16 -2 -24 -32 -41 -21 -11 -46 -26 -55 -32 -13 -10 -24 -10 -51 0 -18 7 -45
12 -60 12 -27 0 -180 -34 -195 -44 -15 -9 -1 -136 19 -182 17 -41 60 -97 157
-203 62 -68 68 -85 82 -235 5 -63 15 -137 20 -166 16 -82 13 -111 -10 -117
-10 -3 -63 -26 -117 -51 -231 -107 -353 -129 -552 -98 -170 26 -213 18 -157
-30 71 -62 289 -78 461 -35 98 25 222 73 297 116 l48 27 39 -31 c41 -33 107
-64 159 -76 18 -3 32 -11 32 -15 0 -13 -43 -18 -265 -30 -110 -6 -204 -15
-209 -20 -11 -11 1 -30 20 -30 8 0 19 -11 24 -25 9 -25 10 -25 98 -19 87 7 89
6 95 -16 6 -22 8 -23 94 -16 48 3 179 18 291 32 l203 26 32 -30 c59 -55 97
-65 294 -82 97 -8 137 -8 153 0 11 6 18 15 15 21 -8 12 -11 12 63 -11 35 -11
87 -20 115 -20 54 0 88 -12 68 -24 -28 -17 -170 -37 -306 -42 -183 -6 -195 -9
-195 -34 0 -11 1 -21 3 -21 1 -1 108 -7 237 -14 193 -10 252 -17 331 -38 53
-14 136 -28 185 -32 156 -10 584 -59 584 -66 0 -8 -181 -46 -285 -59 -44 -6
-154 -13 -245 -17 -91 -3 -175 -10 -187 -14 -30 -11 -30 -37 0 -43 133 -26
514 -41 580 -23 37 10 30 30 -16 41 -20 5 -37 12 -37 16 0 3 33 12 73 19 96
18 292 85 339 116 39 26 56 50 44 62 -3 4 -59 -2 -124 -12 -127 -19 -192 -18
-337 9 -49 9 -182 25 -295 35 -195 19 -340 45 -340 61 0 8 29 21 105 46 28 9
70 31 94 50 52 40 166 85 300 120 53 14 133 36 179 50 45 14 88 24 95 21 19
-6 -122 -83 -203 -111 -41 -13 -97 -28 -123 -31 -38 -5 -47 -10 -45 -23 9 -49
123 -52 316 -7 105 24 112 24 153 9 66 -24 163 -22 234 6 35 14 78 23 104 22
51 -2 81 12 81 36 0 48 -63 55 -164 17 -77 -29 -176 -33 -231 -11 -30 13 -40
12 -95 -5 -113 -35 -109 -23 23 63 56 36 126 74 155 83 29 10 69 31 90 47 20
17 51 37 67 45 67 35 55 53 -37 53 -58 0 -69 3 -64 15 3 8 9 22 12 30 8 18
-19 19 -117 4 -91 -14 -110 -7 -72 26 28 24 28 24 5 25 -13 0 -45 -10 -72 -21
-47 -20 -52 -21 -90 -5 -57 23 -62 21 -55 -18 l7 -33 -115 -41 c-123 -44 -185
-57 -314 -67 -78 -7 -82 -8 -85 -33 -4 -31 -33 -42 -207 -78 -191 -38 -180
-35 -156 -44 92 -38 516 42 935 175 174 55 240 71 240 58 0 -16 -189 -80 -430
-147 -91 -25 -244 -70 -340 -101 -204 -66 -273 -75 -360 -51 -65 19 -90 12
-90 -24 0 -26 -7 -28 -68 -15 -31 7 -97 20 -146 29 -48 9 -105 25 -126 36 -40
20 -93 76 -85 89 2 5 80 11 172 14 175 6 251 17 318 47 22 10 65 28 95 41 30
13 75 40 100 60 74 58 77 59 154 42 64 -15 78 -15 164 1 127 22 233 65 343
138 60 40 101 61 119 60 16 0 62 -15 104 -32 42 -18 104 -36 139 -40 34 -4
103 -20 152 -35 50 -14 124 -29 165 -32 64 -5 80 -10 108 -35 96 -83 196 -115
395 -125 118 -6 131 -5 143 12 18 24 80 15 181 -25 123 -49 229 -64 468 -65
237 0 313 11 351 52 22 23 30 25 161 29 l138 5 -43 -40 c-50 -46 -229 -138
-347 -177 -76 -26 -89 -27 -250 -25 -330 3 -492 25 -519 70 -12 19 -26 12 -26
-12 0 -31 25 -53 91 -80 49 -19 76 -22 274 -24 219 -3 220 -4 258 -30 l38 -26
182 6 c100 3 218 11 262 17 99 14 662 143 768 177 44 13 81 22 85 19 3 -3 3
-7 1 -9 -55 -39 -96 -56 -154 -66 -39 -7 -200 -43 -359 -82 -158 -38 -303 -69
-322 -69 -29 0 -34 -4 -34 -23 0 -13 -5 -28 -12 -35 -21 -21 4 -31 57 -22 28
5 75 9 105 10 93 1 190 27 288 77 l94 47 86 -22 c75 -19 102 -21 197 -16 81 5
143 2 235 -11 178 -25 313 -17 495 30 l140 37 85 -21 c47 -11 104 -23 127 -27
24 -3 46 -10 49 -16 4 -6 31 -21 62 -35 40 -17 52 -27 44 -35 -19 -19 -208 9
-329 47 -60 19 -116 35 -125 35 -42 0 -2 -50 59 -76 139 -58 437 -79 539 -37
28 12 108 31 180 43 71 12 142 29 159 37 48 25 180 163 208 218 16 32 41 62
71 82 25 18 46 37 46 43 0 14 -44 30 -79 30 -33 0 -48 14 -53 50 -4 33 -34 37
-64 9 -17 -16 -35 -22 -56 -21 -17 1 -47 -3 -66 -9 -30 -10 -36 -9 -44 5 -13
23 -45 20 -113 -13 -55 -25 -67 -27 -120 -20 -68 9 -150 -4 -177 -28 -19 -17
-24 -58 -8 -68 6 -3 10 -10 10 -15 0 -15 -92 -40 -146 -40 -35 0 -54 -4 -57
-14 -8 -21 2 -26 47 -26 59 0 136 23 230 68 95 46 167 72 199 72 22 0 22 -1
-3 -20 -65 -50 -297 -150 -348 -150 -13 0 -38 -10 -54 -22 -29 -20 -35 -21
-100 -10 -38 7 -96 23 -130 37 -34 14 -72 25 -85 25 -27 0 -40 -24 -24 -44 10
-11 6 -16 -21 -25 -114 -36 -307 -54 -445 -41 -161 15 -190 28 -113 51 22 7
45 18 51 25 16 19 -24 36 -66 28 -42 -8 -108 3 -100 17 4 5 38 34 76 65 77 61
79 77 11 87 -25 5 -45 17 -62 37 l-25 31 -80 -32 c-194 -77 -527 -148 -625
-133 -32 5 -41 3 -46 -10 -12 -31 13 -41 92 -39 40 1 74 -2 74 -6 0 -21 -167
-51 -284 -51 -101 0 -146 -8 -125 -21 8 -4 11 -10 9 -12 -11 -9 -175 -18 -165
-9 6 5 57 31 115 57 110 50 136 65 210 126 45 37 148 77 258 100 33 7 56 18
62 30 6 10 30 29 53 40 63 32 123 85 142 125 19 40 68 75 105 73 23 -2 24 -2
3 -6 -35 -7 -28 -41 15 -83 28 -26 59 -42 113 -58 111 -33 260 -61 389 -73
106 -10 171 -22 350 -66 127 -30 314 -15 433 36 27 12 70 21 97 21 93 0 295
79 401 156 52 38 72 40 143 19 27 -8 95 -18 150 -21 126 -7 146 -11 146 -29 0
-9 12 -21 28 -27 26 -12 66 -48 73 -66 2 -5 38 -16 79 -25 41 -8 101 -22 133
-31 33 -9 97 -16 149 -16 91 0 147 5 423 40 83 11 179 22 215 25 36 4 146 20
245 37 99 17 194 31 210 32 58 4 94 18 109 41 32 48 16 66 -38 45 -14 -5 -65
-14 -113 -20 -48 -6 -137 -20 -198 -30 -60 -11 -184 -27 -275 -36 -91 -8 -245
-27 -343 -40 -270 -36 -351 -31 -431 29 -54 41 -237 99 -296 95 -39 -3 -45 0
-48 18 -3 20 -10 21 -185 28 l-182 7 -115 -40 c-135 -46 -368 -104 -494 -121
-125 -17 -431 2 -572 36 -56 13 -146 33 -200 44 -68 14 -128 35 -189 65 -49
25 -124 56 -165 70 -67 22 -76 23 -95 9 -99 -73 -303 -162 -423 -184 -34 -6
-81 -18 -104 -26 -24 -9 -77 -20 -118 -25 -95 -10 -121 -16 -134 -29 -5 -5
-31 -10 -57 -10 -48 0 -85 -12 -129 -42 -55 -37 -228 -47 -420 -24 -167 21
-250 42 -317 83 -74 45 -163 55 -249 28 -46 -14 -74 -16 -148 -11 -154 12
-216 31 -309 94 l-82 57 -125 6 c-102 5 -142 12 -218 38 -82 27 -107 31 -203
31 -143 0 -243 -21 -354 -75 -143 -69 -189 -79 -350 -79 -77 0 -153 4 -170 8
-31 8 -31 7 -187 -78 -140 -77 -285 -112 -423 -101 -112 9 -147 20 -178 55
-15 16 -32 30 -37 30 -5 0 -13 12 -16 28 -4 15 -18 54 -31 87 -22 53 -24 68
-18 141 4 45 13 90 20 100 12 17 51 18 686 16 1215 -3 2564 28 3174 73 105 8
276 19 380 25 105 5 271 15 370 20 99 6 279 15 400 20 261 11 614 37 705 51
72 11 97 13 420 34 300 19 728 53 762 61 15 3 98 9 185 15 158 9 176 10 353
29 52 5 147 15 210 21 353 33 666 74 1044 135 160 25 213 31 223 22 21 -17 9
-146 -38 -428 -40 -242 -51 -289 -77 -327 -17 -28 -9 -53 17 -53 32 0 34 -18
3 -34 -16 -8 -34 -22 -41 -30 -10 -11 -32 -16 -75 -16 -33 0 -90 -7 -126 -15
-36 -8 -157 -26 -270 -39 -113 -14 -279 -34 -369 -46 -187 -23 -254 -25 -300
-9 -18 6 -35 8 -39 4 -9 -9 66 -75 84 -75 8 0 48 -11 90 -25 100 -33 335 -63
576 -74 106 -5 231 -17 278 -26 123 -24 252 -23 413 5 137 23 138 23 233 5
113 -21 196 -18 449 19 152 22 274 53 333 85 12 6 27 23 34 38 18 37 31 38 70
5 45 -39 71 -52 153 -74 197 -54 532 -20 595 59 19 24 27 25 177 35 159 10
188 17 164 40 -9 10 -78 13 -274 13 -289 0 -357 10 -438 64 -37 25 -44 26
-107 20 -37 -5 -120 -8 -185 -8 -65 -1 -200 -8 -300 -17 -222 -20 -539 -15
-602 8 -38 15 -44 14 -125 -14 -47 -17 -97 -36 -112 -44 -49 -25 -58 -19 -58
36 0 98 65 520 86 562 14 27 62 57 114 73 14 4 77 30 140 57 63 28 142 60 175
73 33 12 130 55 215 95 150 71 479 217 687 305 57 24 124 56 150 72 38 22 60
27 115 28 66 1 69 2 110 42 40 38 49 42 139 57 53 9 142 16 197 16 133 0 152
8 152 59 0 69 -7 71 -211 68 l-180 -2 -42 45 c-82 89 -375 416 -447 500 -41
47 -101 114 -134 150 -34 36 -160 179 -281 319 -246 284 -211 245 -694 788
-729 821 -1286 1452 -1435 1627 -38 45 -200 227 -360 406 -302 336 -489 551
-591 680 -32 41 -89 107 -125 145 -36 39 -196 218 -355 400 -160 181 -385 435
-500 565 -219 244 -365 412 -473 544 -35 43 -155 179 -265 303 -111 124 -210
237 -219 251 -36 54 -140 540 -140 651 1 91 -16 134 -68 182 -31 28 -40 44
-40 69 0 41 -38 201 -52 218 -17 20 -59 15 -65 -8 -4 -15 -14 -20 -42 -20 -52
0 -458 84 -581 121 -101 30 -114 32 -375 40 -320 10 -382 18 -434 53 -38 27
-75 34 -86 16 -11 -17 103 -80 183 -101 42 -11 136 -24 207 -30 211 -16 388
-56 520 -117 137 -63 407 -160 523 -187 145 -35 143 -33 136 -103 -5 -41 3
-108 25 -237 33 -190 39 -282 83 -1092 12 -232 19 -425 16 -428 -11 -11 -356
124 -563 220 -110 51 -249 113 -310 138 -247 100 -741 344 -875 431 -71 47
-287 180 -390 241 -36 21 -85 56 -110 76 -25 20 -61 44 -80 52 -54 23 -344
240 -355 265 -6 14 -22 26 -39 29 -45 9 -396 277 -426 325 -14 22 -43 50 -64
62 -30 17 -64 58 -145 179 -58 86 -128 194 -156 239 -27 46 -71 106 -97 134
-27 28 -48 56 -48 61 0 25 -61 30 -84 7z m429 -776 c9 -24 15 -63 14 -93 -1
-28 1 -57 5 -63 13 -21 26 -13 26 17 0 47 19 46 40 -1 23 -50 25 -123 5 -158
-15 -27 -20 -80 -7 -80 4 0 18 27 31 60 14 34 28 63 32 66 4 2 17 -12 29 -31
l22 -36 -26 -47 c-56 -102 -76 -148 -76 -179 0 -44 17 -42 26 3 4 20 16 41 29
50 14 9 28 36 38 74 10 33 21 60 26 60 6 0 25 -25 43 -55 18 -31 80 -129 137
-218 150 -234 151 -237 151 -323 0 -77 14 -99 26 -39 3 19 10 35 15 35 12 0
52 -62 232 -356 90 -148 299 -487 463 -754 165 -267 318 -514 339 -550 21 -36
79 -125 128 -199 l89 -133 -27 -187 c-63 -441 -64 -447 -102 -486 -19 -19 -36
-35 -38 -35 -12 0 -3 83 11 120 17 43 15 56 -11 47 -26 -11 -55 -70 -55 -115
0 -32 6 -49 25 -68 17 -17 25 -36 25 -59 0 -51 25 -44 40 10 18 64 25 48 11
-27 -6 -35 -20 -115 -31 -178 -36 -221 -129 -716 -165 -879 -23 -105 -33 -167
-26 -174 17 -17 28 2 49 80 21 76 154 758 187 958 10 55 22 111 28 125 6 14
11 52 12 85 1 33 13 134 28 225 14 91 35 232 46 313 10 82 22 151 26 155 10
10 42 -34 126 -171 40 -67 120 -194 176 -282 57 -88 103 -165 103 -173 0 -7
-7 -26 -15 -43 -9 -16 -26 -116 -40 -232 -36 -297 -35 -294 -61 -322 -25 -27
-40 -99 -30 -143 4 -15 10 -38 12 -52 12 -57 -119 -674 -221 -1049 -69 -249
-85 -358 -41 -274 41 80 203 722 271 1073 9 47 19 94 22 105 6 19 6 18 14 -4
13 -33 33 -21 42 25 8 35 28 119 38 153 7 25 -19 22 -45 -6 l-25 -27 4 34 c10
70 37 259 60 423 14 92 25 188 26 215 2 104 8 103 85 -15 150 -228 313 -493
320 -518 2 -11 -13 -142 -35 -292 -35 -239 -43 -278 -67 -320 -25 -42 -28 -56
-26 -127 1 -71 -10 -128 -85 -441 -100 -421 -145 -580 -283 -1000 -109 -334
-117 -354 -210 -580 -34 -82 -72 -177 -85 -210 -26 -70 -106 -236 -136 -282
-33 -52 -3 -49 35 4 81 110 354 779 495 1213 157 483 322 1184 401 1710 41
274 37 258 60 234 10 -10 82 -121 158 -246 l140 -227 -23 -148 c-13 -81 -31
-208 -41 -280 -16 -128 -18 -133 -40 -133 -20 0 -26 -9 -39 -55 -21 -70 -17
-99 13 -103 22 -3 23 -7 17 -45 -16 -98 -122 -559 -209 -907 -77 -312 -107
-412 -175 -593 -93 -248 -163 -412 -197 -463 -29 -43 -29 -44 -1 -44 34 0 52
25 97 135 22 55 54 129 70 165 109 243 179 472 291 950 122 526 197 916 244
1275 18 142 23 165 33 165 8 0 96 -135 174 -270 81 -139 87 -149 159 -257 132
-196 128 -184 139 -394 5 -101 12 -227 16 -280 l6 -97 -25 5 c-23 5 -27 1 -36
-33 -23 -90 -23 -111 -2 -158 20 -46 20 -50 5 -164 -18 -139 -55 -333 -89
-457 -13 -49 -40 -155 -61 -235 -20 -80 -43 -157 -50 -172 -8 -15 -14 -44 -14
-64 0 -32 -8 -45 -57 -95 -69 -68 -131 -93 -161 -65 -12 10 -29 14 -48 12 -16
-3 -59 -8 -96 -11 l-68 -6 0 29 c0 15 13 49 30 75 16 26 30 50 30 52 0 3 22
51 49 107 66 141 136 367 186 608 15 68 31 132 35 140 15 28 68 375 95 620 15
129 34 267 43 305 20 83 21 259 2 294 -20 38 -30 7 -30 -94 0 -134 -27 -323
-51 -362 -14 -23 -19 -42 -14 -62 4 -17 -1 -45 -11 -71 -15 -36 -15 -46 -4
-64 19 -30 15 -71 -30 -336 -47 -272 -74 -387 -140 -595 -27 -82 -60 -190 -75
-240 -15 -49 -42 -121 -60 -160 -18 -38 -45 -97 -60 -130 -26 -60 -63 -107
-100 -128 -11 -6 -72 -14 -135 -19 -63 -4 -178 -12 -255 -17 -77 -5 -225 -15
-330 -20 -225 -13 -405 -29 -460 -41 -30 -7 -51 -5 -85 7 -81 29 -104 66 -50
77 17 3 30 12 30 19 0 8 9 22 19 31 27 25 37 85 36 221 -2 102 -6 133 -30 209
-32 100 -59 126 -128 126 -21 0 -57 5 -80 10 -32 8 -53 7 -90 -4 -107 -32
-145 -82 -175 -224 -15 -75 -15 -85 1 -153 33 -139 21 -172 -70 -192 -50 -11
-66 -11 -174 -1 l-66 6 -41 -47 c-22 -25 -44 -59 -47 -75 -3 -16 -13 -31 -22
-34 -23 -9 -53 22 -53 55 0 37 -63 154 -109 204 -70 74 -144 170 -157 202 -8
18 -22 36 -31 41 -36 19 -156 40 -323 58 -82 8 -83 9 -65 43 10 20 15 58 15
111 l0 81 35 15 c19 7 45 14 59 14 13 0 31 3 40 6 23 9 20 34 -4 34 -26 0
-112 43 -129 64 -13 16 -13 27 5 137 5 31 2 39 -26 62 -52 44 -160 37 -340
-23 -159 -52 -257 -125 -280 -208 -11 -43 8 -82 41 -82 11 0 34 -6 52 -14 29
-12 36 -23 62 -102 39 -120 54 -152 78 -158 10 -2 17 -10 15 -17 -5 -15 -25
-20 -171 -44 -90 -15 -110 -22 -116 -38 -5 -13 -18 -21 -40 -22 -46 -4 -72
-33 -111 -126 -36 -84 -87 -143 -118 -137 -9 2 -23 16 -30 31 -19 40 -44 48
-125 43 -70 -4 -75 -6 -115 -45 -23 -23 -42 -46 -42 -51 0 -6 -5 -10 -11 -10
-18 0 0 57 58 190 31 69 86 199 123 290 38 91 82 194 98 229 17 35 33 82 37
105 7 45 7 45 64 168 23 48 41 93 41 100 0 6 4 25 9 42 5 17 19 63 30 101 11
39 52 171 90 295 82 262 142 474 166 580 9 41 46 174 81 296 70 243 130 477
168 654 30 141 114 476 155 624 31 111 87 382 116 561 8 55 29 141 45 190 34
104 76 345 85 490 4 55 13 138 21 185 7 47 25 219 39 383 40 474 33 1197 -14
1564 -11 84 -23 193 -27 242 -6 79 -5 91 10 97 16 6 21 39 10 68 -8 21 -24 20
-24 -1 0 -11 -3 -13 -9 -7 -10 9 -41 223 -41 281 0 45 14 41 35 -9z m261 -69
c16 -17 90 -77 165 -134 75 -57 139 -111 143 -120 3 -9 6 -54 6 -100 0 -89 14
-150 30 -126 4 8 11 51 15 97 4 46 11 84 16 84 5 0 95 -61 199 -136 l190 -136
0 -66 c0 -36 -7 -147 -16 -246 -8 -100 -14 -205 -12 -235 3 -58 21 -78 32 -36
10 37 33 278 42 418 6 108 8 117 26 117 21 0 307 -173 355 -214 l25 -22 -21
-264 c-48 -586 -53 -661 -47 -685 7 -29 21 -33 30 -8 15 38 86 744 86 855 0
80 -1 80 229 -42 l211 -112 0 -62 c0 -113 -36 -635 -71 -1048 -11 -131 -19
-258 -17 -284 3 -51 22 -69 32 -32 6 24 39 436 81 1018 14 195 29 358 34 363
4 4 76 -24 159 -63 82 -38 155 -70 160 -70 31 0 34 -101 18 -635 -8 -275 -27
-677 -42 -893 -23 -334 -25 -396 -14 -417 8 -15 17 -22 23 -16 24 24 75 934
83 1476 3 209 7 390 10 403 8 41 57 28 247 -65 l177 -87 0 -260 c0 -582 -27
-1184 -76 -1714 -34 -374 -36 -503 -5 -453 10 15 14 50 41 361 57 662 69 885
79 1533 4 273 10 499 13 502 3 3 47 -12 99 -33 52 -22 126 -51 166 -66 l72
-27 5 -62 c12 -137 15 -587 6 -827 -5 -140 -14 -379 -20 -530 -15 -424 -31
-651 -75 -1075 -29 -284 -30 -295 -11 -295 9 0 18 18 24 48 24 112 62 409 72
557 5 88 15 231 20 317 6 87 15 199 20 250 6 51 13 426 16 833 3 433 9 744 14
749 17 17 27 -37 34 -184 4 -80 14 -235 21 -345 8 -110 22 -312 30 -450 9
-137 24 -376 35 -530 11 -154 29 -446 40 -650 36 -659 74 -1252 86 -1347 3
-27 2 -48 -3 -48 -5 0 -35 44 -68 98 -49 81 -321 516 -559 894 -34 53 -83 133
-111 178 -27 45 -83 132 -124 193 -40 62 -114 177 -163 257 -50 80 -125 196
-167 258 -42 62 -110 168 -152 235 -41 67 -125 199 -186 292 -61 94 -117 184
-126 200 -8 17 -27 41 -42 55 -15 14 -40 53 -55 87 -15 34 -64 117 -108 185
-135 209 -262 421 -262 439 0 9 -9 23 -19 30 -22 16 -206 301 -479 744 -260
421 -336 542 -395 622 -66 88 -327 507 -327 523 0 20 27 9 56 -21z m3128 -451
c8 -27 10 -48 6 -48 -10 0 -17 21 -24 75 -7 46 -2 39 18 -27z m46 -202 c0 -2
9 -47 20 -99 10 -53 44 -237 75 -409 31 -172 63 -349 72 -393 9 -45 13 -89 9
-100 -14 -37 -36 9 -56 116 -66 356 -82 448 -100 574 -11 77 -24 169 -30 205
-12 83 -12 110 0 110 6 0 10 -2 10 -4z m141 -164 c30 -32 135 -154 234 -271
136 -162 180 -220 178 -238 -3 -32 44 -158 100 -269 25 -49 70 -152 100 -229
31 -77 83 -200 117 -274 127 -276 229 -533 305 -766 116 -360 152 -485 186
-645 17 -80 44 -206 59 -280 16 -74 45 -204 65 -288 82 -349 207 -955 250
-1217 25 -154 63 -372 85 -485 98 -504 140 -918 140 -1389 l0 -243 -82 -86
c-80 -82 -220 -186 -242 -179 -5 2 -24 73 -42 158 -121 584 -223 1057 -314
1449 -33 146 -92 409 -130 585 -38 176 -120 545 -183 820 -63 275 -147 649
-186 830 -40 182 -99 445 -132 585 -125 531 -200 878 -210 970 -6 66 -17 111
-35 146 -14 28 -34 96 -45 150 -20 95 -20 120 -3 227 7 44 -15 87 -46 87 -14
0 -22 10 -29 38 -18 67 -61 253 -121 524 -33 147 -66 285 -74 308 -7 22 -10
40 -6 40 4 0 32 -26 61 -58z m-162 -458 c28 -159 51 -301 51 -316 0 -26 -3
-28 -39 -28 l-39 0 -6 63 c-8 78 -36 553 -35 587 0 24 1 24 9 4 4 -11 31 -151
59 -310z m705 -184 c25 -38 46 -73 46 -76 0 -4 47 -93 104 -198 150 -277 245
-463 316 -616 34 -74 99 -214 145 -310 45 -96 113 -256 150 -355 37 -99 85
-223 107 -275 111 -266 193 -505 293 -850 31 -107 79 -267 105 -355 48 -160
86 -296 156 -563 37 -143 63 -205 64 -152 1 80 -107 523 -189 774 -27 83 -52
174 -56 201 -11 74 -131 440 -228 690 -81 212 -272 687 -317 790 -12 28 -35
86 -50 130 -50 145 -296 650 -403 830 -64 107 -97 168 -94 172 10 9 348 -380
408 -469 51 -74 345 -619 470 -868 190 -382 415 -918 555 -1325 39 -115 85
-248 102 -295 17 -47 56 -170 87 -275 98 -332 166 -540 180 -554 28 -28 26 12
-4 114 -191 656 -276 927 -342 1092 -28 71 -62 157 -75 193 -183 487 -395 957
-631 1395 -83 154 -161 298 -173 319 -13 21 -19 37 -12 35 11 -4 333 -367 450
-508 136 -162 214 -296 354 -598 160 -349 244 -536 253 -563 4 -14 52 -133
105 -265 132 -322 202 -514 293 -796 42 -130 84 -243 93 -250 16 -13 17 -10
10 30 -17 110 -238 738 -359 1021 -24 58 -48 116 -52 130 -10 32 -180 424
-278 640 -88 196 -120 276 -115 290 2 6 39 -31 83 -82 44 -51 188 -214 320
-361 132 -148 259 -292 282 -320 81 -101 379 -891 582 -1547 114 -367 123
-392 139 -398 18 -6 15 20 -19 137 -159 550 -364 1149 -512 1496 -36 83 -62
152 -60 155 3 3 17 -9 31 -25 15 -17 155 -176 312 -354 l285 -323 92 -287
c158 -494 230 -729 297 -971 35 -129 87 -318 115 -420 28 -102 64 -244 81
-317 16 -73 43 -187 60 -254 17 -67 30 -136 28 -153 l-3 -31 -135 -12 c-188
-16 -179 -16 -184 9 -24 110 -198 799 -236 931 -50 173 -76 238 -97 245 -20 6
-17 -8 42 -218 72 -253 115 -421 200 -775 18 -77 38 -153 45 -169 7 -20 8 -32
0 -40 -5 -5 -96 -17 -201 -25 -152 -11 -192 -12 -198 -2 -5 7 -14 38 -21 69
-41 190 -93 408 -103 429 -16 35 -27 28 -27 -17 0 -34 69 -345 99 -447 7 -24
6 -35 -4 -43 -18 -15 -222 -42 -289 -38 -49 3 -51 4 -59 38 -4 19 -46 211 -91
425 -85 398 -98 445 -116 445 -20 0 -9 -67 75 -463 47 -221 88 -414 91 -429 5
-23 1 -29 -18 -36 -50 -18 -367 -76 -374 -69 -16 16 19 29 150 56 75 15 142
33 149 40 17 17 -46 14 -158 -9 -108 -22 -151 -25 -160 -10 -3 5 -8 31 -12 58
l-5 49 42 24 c62 34 49 50 -29 38 -24 -4 -25 -1 -67 212 -44 223 -66 295 -84
284 -13 -8 -12 -15 42 -297 41 -212 41 -218 23 -238 -23 -25 -272 -153 -278
-142 -3 4 -15 75 -27 157 -28 191 -196 1091 -211 1127 -19 46 -32 21 -25 -47
8 -77 78 -466 146 -802 27 -139 50 -255 50 -258 0 -6 -150 -177 -165 -187 -5
-4 -13 -4 -17 0 -3 4 -9 142 -11 307 -4 279 -22 536 -47 675 -5 30 -17 109
-25 175 -9 66 -38 251 -65 410 -62 359 -98 588 -151 950 -6 39 -42 197 -80
353 -38 155 -97 405 -130 554 -78 356 -119 517 -181 718 -91 300 -197 618
-234 707 -20 49 -51 124 -69 168 -18 44 -74 170 -125 280 -51 110 -101 223
-112 250 -11 28 -53 121 -94 208 -67 144 -81 177 -70 177 1 0 24 -31 50 -70z
m-516 -264 c40 -7 75 -16 78 -19 16 -16 -57 -18 -124 -4 -143 31 -105 50 46
23z m-148 -60 l45 -24 21 -108 c15 -73 19 -115 13 -126 -10 -19 8 -112 35
-184 8 -22 17 -61 20 -89 3 -27 13 -88 21 -135 9 -47 22 -142 30 -212 8 -70
21 -140 29 -157 11 -20 16 -57 16 -108 0 -103 16 -194 41 -243 18 -35 20 -50
14 -124 -7 -78 -5 -88 16 -122 20 -33 22 -51 24 -169 2 -121 4 -136 30 -191
23 -50 29 -78 35 -180 6 -103 10 -127 31 -160 22 -35 24 -50 24 -159 1 -148 1
-145 25 -145 23 0 24 -7 10 -68 -8 -32 -7 -57 5 -101 8 -33 15 -83 15 -113 0
-30 4 -58 9 -64 15 -15 33 -173 26 -225 -6 -41 -4 -49 18 -70 33 -31 47 -86
47 -184 0 -44 7 -105 15 -135 8 -30 17 -82 21 -115 4 -33 13 -68 22 -78 11
-12 15 -40 16 -96 1 -60 5 -83 19 -98 14 -16 17 -39 17 -133 0 -94 3 -115 17
-125 12 -9 18 -34 22 -93 4 -56 11 -86 24 -99 9 -11 17 -29 17 -40 0 -12 32
-70 72 -130 82 -122 91 -120 64 13 -22 104 -21 114 9 114 20 0 25 -6 30 -37 4
-21 15 -76 26 -123 53 -241 64 -300 53 -300 -5 1 -24 9 -43 18 -26 13 -48 40
-89 112 -30 52 -75 124 -100 160 -49 70 -124 191 -207 335 -29 50 -121 198
-205 330 -84 132 -176 277 -205 321 l-52 82 -1 139 c-1 77 -13 326 -26 554
-14 228 -28 464 -31 524 -16 316 -46 847 -55 970 -6 77 -21 322 -35 545 -14
223 -30 441 -35 485 -14 110 -13 231 2 255 10 16 10 29 -5 69 -25 72 -26 72
43 37z m224 -204 c31 -148 39 -166 71 -158 18 5 25 0 35 -25 16 -38 1 -57 -51
-65 -30 -5 -40 -2 -63 24 -27 27 -28 35 -30 123 -1 52 -6 130 -10 174 -8 72
-7 79 7 65 9 -8 27 -71 41 -138z m64 30 c12 -60 22 -115 22 -123 -1 -34 -20
23 -39 118 -24 116 -24 113 -13 113 5 0 18 -49 30 -108z m92 -399 c0 -8 27
-134 60 -281 34 -146 60 -272 58 -280 -5 -26 -68 42 -68 73 0 28 -62 352 -86
453 -9 34 -13 70 -9 80 6 15 9 14 26 -7 10 -13 19 -30 19 -38z m-107 33 c8 -8
20 -50 26 -93 20 -126 81 -455 92 -497 7 -24 25 -53 47 -73 43 -40 35 -54 -35
-60 -43 -4 -51 -2 -77 26 -27 28 -28 33 -16 55 15 29 9 144 -14 276 -8 47 -24
140 -35 207 -11 68 -23 128 -26 133 -8 14 1 40 14 40 5 0 16 -6 24 -14z m281
-833 c9 -38 40 -171 70 -298 30 -126 71 -304 91 -395 73 -338 156 -715 230
-1050 42 -190 96 -437 120 -550 23 -113 100 -457 169 -765 70 -308 136 -612
147 -675 10 -63 24 -135 30 -160 5 -25 34 -155 63 -290 30 -135 61 -274 71
-309 11 -43 13 -67 6 -74 -10 -10 -139 -25 -227 -26 l-52 -1 -11 62 c-6 35
-14 100 -18 145 l-6 82 36 14 c92 39 95 131 8 262 -15 22 -42 62 -60 90 -33
48 -33 52 -28 127 6 94 -16 190 -61 270 -22 38 -38 90 -56 178 -14 69 -32 142
-40 162 -23 54 -20 81 14 113 16 16 33 43 36 62 15 79 -25 181 -76 193 -35 8
-46 38 -65 170 -9 63 -25 150 -37 192 l-20 78 27 32 c34 40 29 75 -26 176 -36
65 -44 94 -75 265 -19 106 -37 225 -41 265 -6 71 -5 75 20 95 30 25 47 86 37
134 -4 17 -30 60 -57 95 -28 35 -56 74 -63 88 -13 25 -69 342 -70 393 0 16 9
40 20 54 41 52 17 173 -43 220 -35 27 -43 49 -56 143 -6 47 -28 167 -47 268
l-36 183 23 25 c12 13 26 24 30 24 4 0 14 -30 23 -67z m-125 -15 c5 -18 28
-143 50 -279 23 -135 48 -268 56 -296 16 -54 45 -89 53 -65 3 10 7 10 18 1 18
-15 18 -33 -1 -49 -26 -21 -62 -2 -109 57 -45 57 -46 60 -46 130 0 40 -8 118
-19 175 -10 57 -24 138 -31 182 -6 43 -18 98 -25 122 -14 48 -12 54 21 54 17
0 25 -8 33 -32z m125 -787 c9 -10 22 -47 28 -82 37 -222 79 -425 95 -457 15
-30 23 -36 44 -34 19 2 31 -4 43 -23 24 -36 14 -55 -29 -55 -40 0 -92 42 -150
120 -34 47 -35 50 -25 96 13 56 6 131 -26 282 -13 63 -24 127 -24 143 0 34 19
38 44 10z m116 -736 c20 -11 31 -25 34 -48 3 -17 15 -90 26 -162 11 -71 36
-217 56 -323 39 -207 38 -230 -9 -199 -13 8 -29 28 -35 44 -12 28 -100 552
-109 651 -3 28 -2 52 1 52 4 0 20 -7 36 -15z m3121 -302 c63 -71 137 -155 164
-188 27 -33 75 -87 107 -120 l57 -60 61 -205 c122 -412 398 -1471 407 -1562
l5 -48 -141 0 -140 0 -10 38 c-5 20 -26 111 -46 202 -67 302 -195 781 -321
1197 -37 120 -86 283 -109 363 -24 80 -69 219 -99 310 -50 147 -64 200 -52
200 2 0 55 -57 117 -127z m637 -721 c99 -108 213 -236 253 -283 41 -47 128
-146 194 -221 178 -199 440 -498 608 -691 81 -93 183 -207 225 -253 80 -85
111 -129 99 -141 -4 -4 -40 1 -80 10 -39 10 -107 20 -149 24 -57 4 -82 11 -94
24 -9 10 -47 107 -85 216 -78 227 -104 293 -118 293 -6 0 -8 -6 -6 -12 3 -7
27 -85 54 -173 27 -88 62 -195 77 -238 35 -97 31 -103 -63 -88 -37 7 -121 18
-187 25 -71 9 -123 19 -130 28 -7 7 -20 69 -29 136 -33 232 -146 622 -227 781
-49 96 -51 77 -4 -48 51 -135 109 -328 154 -516 33 -138 70 -320 70 -349 0 -5
-71 -7 -162 -4 -185 5 -192 9 -203 96 -19 162 -161 760 -243 1027 -135 438
-170 578 -142 560 5 -3 90 -94 188 -203z m-3624 192 c20 -8 27 -34 71 -272 32
-169 66 -310 90 -364 5 -14 2 -18 -14 -18 -33 0 -70 67 -87 156 -7 44 -31 171
-53 284 -21 113 -37 208 -34 213 5 9 7 9 27 1z m-532 -377 c42 -67 113 -183
159 -257 45 -74 151 -241 234 -370 171 -264 245 -389 245 -414 0 -9 -9 -34
-20 -56 l-20 -38 35 -21 c37 -22 45 -53 24 -92 -7 -14 -7 -24 0 -33 21 -25
-16 -185 -39 -171 -6 3 -10 37 -10 75 0 38 -5 72 -10 75 -6 4 -8 16 -4 28 6
19 5 20 -9 9 -9 -8 -21 -30 -28 -49 -13 -40 -28 -29 -29 22 0 17 -11 53 -24
80 l-24 50 -16 -37 c-9 -21 -16 -47 -16 -59 0 -12 -9 -36 -20 -55 l-21 -33 28
-13 c17 -8 32 -26 39 -46 16 -51 32 -61 54 -35 15 19 19 20 24 7 3 -9 6 -26 6
-39 0 -43 10 -55 41 -48 26 5 29 3 29 -20 0 -36 -16 -44 -101 -50 -41 -4 -102
-13 -135 -22 -32 -8 -104 -21 -159 -29 -55 -8 -129 -20 -164 -26 -70 -12 -89
-3 -69 33 7 14 7 26 -1 41 -6 11 -15 95 -21 186 -6 91 -15 210 -20 265 -19
209 -13 281 28 328 15 17 16 17 28 -5 11 -21 13 -20 24 22 6 25 19 60 27 77
15 30 15 34 0 51 -10 10 -17 22 -17 27 0 13 -32 45 -46 45 -12 0 -44 -79 -44
-112 0 -10 -5 -18 -11 -18 -15 0 -6 117 10 133 18 18 13 92 -8 116 -15 17 -20
45 -26 124 -3 56 -13 184 -20 285 -14 185 -12 223 9 202 6 -6 45 -66 88 -133z
m759 -182 c21 -39 22 -47 9 -55 -22 -14 -41 10 -47 59 -7 54 8 53 38 -4z
m-875 -680 c4 -181 6 -350 5 -374 -1 -24 4 -66 10 -92 10 -38 10 -54 1 -75
-10 -20 -10 -34 0 -60 9 -27 10 -41 0 -66 -10 -28 -9 -34 8 -50 11 -10 20 -22
20 -26 0 -3 -19 -25 -42 -47 l-43 -40 -112 -3 c-148 -5 -147 -8 -89 169 47
143 135 472 160 604 23 117 46 328 46 422 0 45 3 90 8 100 12 30 20 -109 28
-462z m-3788 79 c12 -8 22 -24 22 -35 0 -19 -4 -20 -52 -14 -40 5 -69 1 -117
-14 -35 -12 -75 -21 -90 -21 -14 0 -35 -6 -47 -13 -12 -6 -49 -27 -83 -45 -34
-18 -65 -40 -68 -50 -15 -41 -53 -43 -53 -3 0 43 39 84 96 100 27 8 60 20 74
27 77 39 130 59 189 69 92 17 104 17 129 -1z m-34 -130 c26 -10 18 -33 -11
-39 -92 -17 -215 -51 -262 -71 -77 -34 -98 -16 -36 32 71 54 252 100 309 78z
m4807 -16 c7 -14 10 -49 6 -99 -4 -63 -11 -89 -37 -134 -55 -95 -77 -66 -40
53 11 35 20 85 20 110 0 87 24 120 51 70z m-4853 -159 c-14 -61 0 -124 27
-124 15 0 21 10 27 42 4 24 11 51 17 60 8 16 10 15 15 -7 2 -14 7 -49 10 -78
6 -66 -4 -72 -91 -49 l-63 16 -66 -29 c-78 -35 -94 -37 -94 -10 0 11 -11 48
-26 81 -23 55 -24 63 -10 83 19 30 75 56 120 56 30 0 38 -5 46 -25 12 -33 30
-32 65 5 16 16 30 29 31 27 1 -1 -2 -23 -8 -48z m152 26 c0 -10 -10 -15 -30
-15 -20 0 -30 5 -30 15 0 10 10 15 30 15 20 0 30 -5 30 -15z m1460 -150 c65
-17 101 -42 113 -79 13 -39 1 -44 -31 -14 -35 33 -122 49 -122 22 0 -9 -12
-38 -27 -63 -25 -43 -25 -46 -10 -73 15 -26 15 -31 -8 -80 -18 -39 -21 -56
-14 -70 6 -11 8 -31 5 -46 -3 -15 -2 -33 2 -40 13 -19 36 12 62 81 26 68 78
141 105 145 11 2 26 11 33 20 24 31 32 0 22 -93 -5 -50 -10 -115 -10 -146 l0
-57 -43 5 c-39 5 -46 2 -65 -22 -14 -18 -22 -42 -22 -66 0 -33 4 -41 31 -55
30 -15 31 -18 24 -57 -5 -23 -9 -95 -9 -159 -1 -79 -5 -121 -13 -129 -21 -21
-33 2 -45 79 -15 105 -18 106 -204 112 -106 3 -157 9 -166 18 -20 20 -15 123
8 163 15 26 29 35 57 40 22 3 51 18 68 35 29 27 30 32 24 79 -4 28 -6 58 -6
68 4 44 3 76 -4 133 -9 70 1 108 45 177 33 52 81 87 120 87 14 0 50 -7 80 -15z
m-1494 -115 c27 -23 58 -42 69 -44 11 -2 54 -11 95 -20 41 -9 97 -16 124 -16
57 0 101 -27 137 -87 13 -21 52 -76 87 -122 35 -46 72 -102 82 -125 10 -22 25
-59 34 -80 10 -21 20 -67 23 -102 5 -55 9 -64 25 -64 11 0 31 9 45 19 29 24
66 15 71 -18 3 -19 -1 -21 -45 -21 -27 0 -75 7 -106 15 -36 9 -74 13 -99 8
-37 -5 -41 -4 -35 11 4 10 0 27 -8 39 -11 15 -12 24 -3 34 8 10 4 22 -15 51
-14 20 -44 88 -65 150 -42 118 -63 159 -88 169 -22 8 -26 -1 -15 -30 6 -15 19
-89 30 -164 11 -76 25 -152 31 -170 6 -17 10 -44 8 -60 l-3 -28 -295 0 c-162
0 -322 4 -354 9 -57 8 -63 11 -129 79 -38 40 -79 95 -91 122 -41 90 -145 211
-160 187 -6 -10 31 -92 68 -151 23 -35 26 -50 21 -82 -6 -32 -12 -40 -33 -45
-15 -4 -39 -19 -53 -34 -32 -35 -100 -50 -218 -50 -98 0 -111 8 -146 83 -16
34 -16 39 -1 62 22 34 20 42 -14 60 -26 14 -32 14 -64 -1 -36 -18 -71 -13 -64
9 3 6 15 17 29 24 76 36 75 36 108 19 17 -9 31 -21 31 -27 0 -5 14 -23 32 -39
26 -24 29 -32 19 -44 -10 -11 -8 -18 10 -35 31 -29 100 -27 137 4 2 2 -3 13
-10 25 -11 19 -10 24 11 41 13 10 31 19 41 19 24 0 33 26 18 53 -19 35 -15 68
16 132 29 59 30 60 70 60 26 0 65 12 106 32 36 17 88 37 115 44 55 13 103 38
152 80 30 26 87 43 173 52 19 2 38 5 41 5 4 1 29 -16 55 -38z m5799 -27 c3
-21 7 -49 9 -61 4 -26 -27 -50 -139 -108 -41 -22 -57 -26 -66 -17 -8 8 8 31
65 93 42 44 84 92 92 106 22 33 32 30 39 -13z m375 16 c16 -28 5 -65 -25 -85
-26 -17 -247 -94 -270 -94 -32 0 -14 41 30 73 63 44 216 127 237 127 10 0 22
-9 28 -21z m2620 -42 c96 -14 229 -31 294 -37 122 -11 204 -26 220 -41 24 -22
-130 -45 -364 -54 -85 -3 -200 -12 -255 -20 -136 -19 -268 -34 -405 -45 -63
-6 -141 -13 -174 -16 -33 -4 -80 -2 -110 5 -28 7 -116 16 -196 21 -80 5 -161
12 -181 16 -28 4 -48 0 -89 -22 -44 -23 -65 -28 -129 -27 -42 0 -108 3 -146 8
-65 7 -79 5 -182 -29 -79 -25 -153 -41 -250 -52 -207 -24 -196 -25 -209 16
-19 59 -39 65 -208 64 -83 0 -212 -8 -286 -17 -198 -23 -327 -31 -315 -19 8 8
119 30 390 76 17 3 80 16 140 30 61 14 154 33 208 42 98 16 98 16 113 -5 19
-26 34 -27 34 -2 0 11 9 22 19 26 36 11 505 61 1036 109 22 2 227 3 455 1 388
-2 426 -4 590 -28z m-4082 -29 c10 -12 62 -280 78 -395 6 -52 6 -53 -20 -53
-29 0 -30 2 -46 130 -6 47 -16 104 -21 127 -33 152 -29 237 9 191z m-134 -82
c7 -38 -9 -91 -24 -81 -11 7 -13 38 -4 84 8 41 20 39 28 -3z m1606 15 c0 -15
-18 -23 -84 -37 -110 -24 -129 -15 -36 17 90 30 120 35 120 20z m-355 -32 c9
-14 -20 -45 -58 -60 -18 -7 -74 -37 -126 -67 -90 -52 -235 -107 -253 -95 -13
7 52 53 74 53 20 0 87 32 128 60 47 33 204 120 216 120 7 0 16 -5 19 -11z
m3414 -55 c2 -2 2 -6 0 -8 -6 -7 -151 -25 -284 -35 -195 -16 -416 -40 -480
-51 -33 -6 -96 -15 -140 -20 -44 -5 -100 -14 -125 -20 -90 -24 -361 -33 -381
-12 -26 25 10 35 163 48 84 7 187 18 228 23 41 6 136 16 210 22 74 6 194 19
265 30 72 10 168 19 215 20 47 1 114 5 150 9 59 7 169 3 179 -6z m-1431 -55
c-2 -6 -8 -10 -13 -10 -5 0 -11 4 -13 10 -2 6 4 11 13 11 9 0 15 -5 13 -11z
m-3221 -21 c6 -7 20 -55 33 -107 21 -89 21 -95 5 -107 -23 -17 -70 -22 -430
-44 -240 -15 -313 -16 -321 -7 -14 15 -26 147 -16 165 6 8 63 17 163 27 154
14 437 57 494 74 43 13 61 13 72 -1z m2983 3 c0 -17 -54 -48 -105 -59 -248
-56 -752 -123 -1135 -152 -146 -12 -296 -27 -335 -35 -62 -13 -426 -55 -476
-55 -29 0 -23 26 9 38 55 21 74 24 102 12 23 -9 33 -9 52 3 12 9 59 18 103 22
157 12 522 56 622 76 115 21 149 23 158 9 9 -14 46 -12 95 5 43 15 227 48 335
60 115 12 480 66 510 75 41 11 65 12 65 1z m-1186 -8 c3 -4 -16 -28 -44 -55
-45 -42 -56 -48 -95 -48 -24 0 -46 4 -49 9 -8 12 24 38 55 46 14 3 38 17 55
30 28 24 64 32 78 18z m120 -1 c10 -17 -73 -82 -104 -82 -17 0 -30 2 -30 4 0
6 113 86 122 86 4 0 9 -4 12 -8z m-274 -10 c0 -5 -28 -21 -61 -38 -34 -16 -69
-38 -78 -50 -18 -23 -111 -44 -111 -25 0 6 46 32 103 60 128 62 147 69 147 53z
m-190 -21 c0 -5 -39 -34 -87 -65 -60 -38 -98 -56 -120 -56 -18 0 -33 4 -33 9
0 11 87 66 120 76 14 4 33 16 43 26 18 19 77 27 77 10z m1674 -103 c14 -201
-59 -787 -140 -1130 -26 -109 -39 -133 -68 -122 -23 9 -21 55 13 256 53 316
70 431 96 668 15 129 31 255 36 279 8 36 7 47 -7 62 -10 11 -13 25 -9 38 7 23
53 63 65 56 4 -3 11 -51 14 -107z m1536 104 c0 -25 -42 -49 -195 -111 -345
-139 -444 -181 -605 -256 -91 -42 -219 -98 -285 -125 -66 -26 -179 -73 -251
-104 -72 -31 -136 -56 -143 -56 -8 0 -11 9 -7 28 3 15 10 90 16 167 15 176 23
223 46 246 37 36 351 92 644 114 47 4 144 15 215 25 72 11 204 29 295 40 91
12 181 25 200 29 47 12 70 13 70 3z m-3385 -12 c-9 -15 -104 -84 -143 -104
-66 -34 -55 -8 17 40 110 74 142 90 126 64z m-155 -29 c0 -21 -150 -110 -205
-121 -31 -7 -59 -10 -61 -7 -6 5 63 47 128 78 24 11 59 29 78 40 38 21 60 24
60 10z m-1932 -30 c9 -5 16 -38 19 -88 l6 -80 -39 -6 c-22 -4 -56 -7 -76 -7
-54 0 -62 -22 -55 -137 6 -93 6 -94 -19 -103 -28 -11 -136 -13 -171 -4 -16 5
-22 16 -27 52 -15 109 -19 124 -43 152 l-24 29 25 44 c14 24 26 53 26 64 0 11
6 25 13 31 16 13 149 40 252 51 44 5 85 9 90 10 6 0 16 -3 23 -8z m3807 -21
c12 -19 -16 -49 -53 -58 -161 -40 -232 -54 -281 -57 -31 -2 -101 -11 -156 -19
-55 -9 -156 -23 -225 -31 -69 -9 -151 -20 -184 -26 -32 -6 -104 -14 -160 -19
-112 -10 -399 -40 -666 -70 -402 -45 -420 -46 -420 -9 0 41 32 47 436 84 214
19 461 44 549 55 88 11 221 27 295 35 74 9 173 22 220 30 47 8 130 19 185 25
55 6 114 16 132 21 48 15 232 47 280 48 23 1 45 -3 48 -9z m-6571 -43 c7 -18
6 -47 -3 -88 -13 -67 -6 -88 33 -90 37 -2 -23 -17 -72 -18 -46 -1 -74 9 -109
42 -34 30 -32 95 4 137 32 39 57 50 103 47 28 -2 36 -7 44 -30z m2361 6 c-9
-39 -77 -131 -100 -137 -53 -13 -1266 -52 -1314 -43 -37 8 -102 48 -98 61 7
20 123 35 392 51 154 9 361 22 459 30 196 16 214 13 194 -31 -15 -32 3 -54 27
-34 8 7 15 18 15 26 0 7 10 25 23 39 21 24 31 27 182 40 88 9 169 17 180 19
46 8 47 7 40 -21z m2065 20 c-1 -8 -199 -154 -219 -161 -6 -2 -11 3 -11 11 0
19 58 65 146 117 69 40 84 46 84 33z m-6560 -63 c6 -12 10 -35 8 -53 l-3 -31
-93 -13 c-51 -7 -122 -20 -158 -29 -36 -9 -67 -14 -68 -13 -11 13 -15 108 -5
114 15 10 216 43 266 44 33 1 45 -4 53 -19z m6530 -45 c12 -22 11 -27 -5 -45
-10 -11 -27 -22 -39 -26 -11 -3 -31 -18 -43 -33 l-21 -26 -22 23 c-12 13 -19
26 -15 30 18 18 121 101 126 101 3 1 12 -10 19 -24z m2153 3 c10 -36 -9 -56
-65 -67 -81 -17 -493 -81 -583 -92 -44 -5 -102 -11 -130 -14 -833 -95 -1932
-187 -3415 -285 -655 -43 -715 -46 -955 -53 -88 -2 -221 -9 -295 -14 -74 -6
-290 -14 -480 -17 -190 -4 -478 -13 -640 -22 -418 -21 -857 -32 -1130 -28
-129 2 -413 6 -630 9 -508 7 -520 9 -520 61 0 15 -6 24 -15 24 -9 0 -20 11
-25 24 -11 30 -33 294 -25 307 8 11 42 12 49 1 3 -5 10 -63 15 -130 11 -134
23 -174 47 -150 13 13 13 26 -1 103 -8 48 -15 110 -15 136 0 42 3 49 19 49 11
0 22 -3 25 -8 2 -4 6 -63 8 -130 2 -67 7 -122 12 -122 18 0 87 63 107 100 13
23 34 43 50 49 23 8 59 54 59 76 0 3 -22 5 -49 5 -40 0 -50 4 -54 20 -3 10 0
23 7 27 6 5 101 6 211 3 110 -3 216 -2 237 2 20 4 58 3 85 -2 26 -5 201 -14
388 -19 776 -23 1204 -33 1212 -28 4 3 78 7 163 8 l155 4 0 -25 0 -25 -265 -7
c-146 -4 -276 -9 -290 -10 l-25 -3 25 -15 c30 -18 243 -19 355 -2 56 8 77 7
104 -4 18 -8 51 -14 72 -14 46 0 53 -10 35 -47 -8 -15 -17 -36 -20 -45 -3 -10
-19 -19 -38 -22 -48 -7 -488 -26 -595 -26 -97 0 -149 -12 -137 -31 5 -9 48
-10 153 -5 216 9 628 11 861 3 375 -12 633 -6 1195 25 110 6 236 11 280 12 44
1 150 7 235 14 85 6 261 19 390 28 129 8 264 20 300 25 36 5 178 13 315 19
138 6 394 22 570 35 176 14 419 32 540 40 121 8 254 20 295 25 41 6 226 26
410 45 184 19 403 41 485 50 176 18 647 95 790 129 128 30 132 30 138 4z
m-9074 3 c15 -9 21 -103 36 -546 9 -268 41 -467 84 -521 12 -15 21 -33 21 -41
0 -7 15 -16 33 -20 31 -7 31 -7 7 -14 -31 -9 -217 -11 -257 -3 -16 3 -39 13
-51 23 -22 16 -19 17 76 16 104 0 132 10 132 46 0 17 -9 19 -85 19 -97 0 -151
17 -164 52 -4 13 -11 66 -15 119 -4 52 -13 138 -21 190 -24 154 -23 157 40
219 31 30 72 78 91 106 l36 52 -16 103 c-8 57 -17 124 -18 148 -3 40 0 45 22
52 35 10 33 10 49 0z m6631 -16 c26 -31 -4 -40 -139 -41 -70 -1 -143 -6 -162
-12 -19 -6 -248 -25 -509 -42 -261 -17 -504 -35 -538 -39 -67 -8 -78 -3 -70
36 3 16 29 20 288 35 275 16 568 37 905 63 220 17 211 17 225 0z m-5620 -36
c0 -21 -20 -34 -70 -44 l-35 -7 27 24 c14 13 31 33 38 46 9 19 14 21 26 11 8
-6 14 -20 14 -30z m2250 -7 c41 -15 75 -32 74 -37 0 -6 -22 -14 -48 -19 -48
-8 -48 -9 -40 -40 9 -36 9 -96 0 -131 -6 -24 -9 -25 -96 -25 l-89 0 5 38 c3
20 12 70 22 110 13 60 23 79 50 103 18 16 36 29 40 29 4 0 41 -13 82 -28z
m1595 -92 l0 -25 -130 -6 c-284 -14 -864 -31 -1120 -32 l-270 -2 -3 28 -3 27
83 0 c122 0 827 20 1018 29 91 5 224 8 295 7 l130 -1 0 -25z m1835 -5 c12 -13
17 -25 12 -29 -9 -5 -98 -14 -338 -33 -50 -3 -94 -2 -113 5 -23 8 -37 8 -58
-3 -17 -8 -80 -16 -158 -20 -71 -4 -218 -15 -325 -25 -107 -10 -252 -22 -322
-26 -125 -6 -128 -6 -128 14 0 12 8 26 18 31 30 16 483 54 972 82 113 6 246
16 295 23 105 13 116 12 145 -19z m-7008 -102 c2 -54 2 -102 0 -106 -2 -5 -15
2 -28 14 -59 55 -55 189 6 189 17 0 19 -10 22 -97z m172 55 c16 -133 16 -136
-4 -160 -17 -20 -21 -21 -30 -8 -22 34 -5 210 20 210 5 0 11 -19 14 -42z m514
-8 c4 -51 -11 -72 -28 -40 -14 27 -4 93 13 87 7 -2 13 -23 15 -47z m-786 -11
c-4 -67 -9 -75 -32 -54 -24 22 -26 62 -3 87 25 28 38 16 35 -33z m548 -29 c0
-38 5 -115 11 -171 10 -94 10 -104 -6 -115 -10 -8 -21 -11 -25 -9 -4 3 -11 49
-14 102 -4 54 -12 125 -17 157 -14 77 -6 106 26 106 24 0 25 -2 25 -70z m-357
-85 c15 -91 11 -115 -18 -115 -17 0 -35 83 -35 159 0 112 33 85 53 -44z m5080
76 c42 -42 -145 -64 -798 -91 -477 -20 -721 -24 -729 -12 -4 6 1 23 10 37 l16
25 297 0 c163 0 382 7 486 14 105 8 267 18 360 21 94 4 188 11 210 15 52 11
133 6 148 -9z m-3063 -810 c0 -5 -8 -11 -17 -14 -10 -3 -97 -28 -193 -56 -96
-28 -179 -50 -184 -48 -15 5 335 126 367 126 15 1 27 -3 27 -8z m8831 -28 c22
-26 87 -50 184 -68 109 -20 125 -24 125 -34 0 -40 -304 -52 -440 -17 -127 33
-160 53 -160 100 0 13 14 16 78 17 42 0 100 4 127 9 28 4 55 8 61 9 6 0 18 -6
25 -16z m-347 1 c24 -9 19 -29 -9 -42 -43 -20 -65 -15 -65 12 0 32 34 45 74
30z m-829 -23 c0 -23 -285 -125 -302 -108 -10 11 -3 14 128 72 121 53 174 64
174 36z m-7384 -6 c0 -5 -32 -18 -73 -28 -79 -19 -468 -135 -638 -190 -107
-35 -212 -55 -195 -38 10 9 282 90 440 130 44 11 161 47 260 80 177 59 206 66
206 46z m8034 5 c9 -14 -57 -41 -69 -29 -15 14 7 30 56 38 4 0 10 -4 13 -9z
m-428 -27 c10 -28 -172 -92 -258 -91 -40 0 -74 -8 -124 -30 -112 -49 -338 -73
-461 -48 -43 8 -124 20 -179 26 -221 24 -227 28 -95 55 41 9 94 27 118 41 l44
26 57 -17 c31 -9 73 -23 94 -31 20 -8 51 -14 67 -14 33 0 38 -11 15 -30 -8 -7
-12 -16 -9 -21 10 -16 54 -9 101 16 47 25 63 25 63 -1 0 -8 6 -14 14 -14 16 0
292 96 371 128 56 24 175 27 182 5z m252 8 c20 -13 -6 -24 -124 -54 -130 -32
-165 -38 -165 -28 0 8 121 67 168 81 37 11 104 12 121 1z m-1349 -9 c0 -17
-47 -52 -88 -66 -24 -9 -89 -20 -145 -25 -56 -5 -118 -10 -137 -12 -57 -5
-139 -3 -147 4 -17 17 29 28 217 52 156 20 239 36 246 46 7 11 54 12 54 1z
m-1724 -11 c-8 -12 -341 -206 -399 -231 -40 -18 -59 -21 -109 -15 -36 4 -56
11 -51 16 5 5 71 36 146 69 75 32 171 78 213 101 42 23 93 48 113 55 42 15 95
18 87 5z m-406 -10 c0 -11 -26 -21 -53 -20 -19 1 -18 3 8 14 36 17 45 18 45 6z
m-1320 -17 c0 -29 -160 -84 -405 -138 -58 -12 1 13 132 58 70 24 153 55 183
69 65 30 90 33 90 11z m-4855 -34 c9 -14 -41 -35 -125 -54 -80 -19 -240 -36
-240 -26 0 3 39 14 88 24 48 9 119 28 157 41 76 26 111 30 120 15z m6625 2 c0
-28 -423 -272 -471 -272 -45 0 -13 35 66 73 44 21 122 64 173 95 156 96 186
112 210 112 12 0 22 -4 22 -8z m3200 -7 c0 -8 -52 -26 -58 -20 -3 2 6 9 19 14
28 11 39 13 39 6z m-90 -25 c0 -5 -10 -10 -22 -9 -22 0 -22 1 -3 9 11 5 21 9
23 9 1 1 2 -3 2 -9z m-3161 -94 c-66 -68 -80 -76 -191 -121 -87 -35 -111 -26
-33 12 59 29 81 42 211 136 37 26 69 45 72 42 2 -2 -24 -34 -59 -69z m-6569
54 c0 -5 -7 -10 -15 -10 -8 0 -15 5 -15 10 0 6 7 10 15 10 8 0 15 -4 15 -10z
m4829 -76 c9 -8 -10 -16 -75 -30 -86 -18 -127 -18 -122 -1 8 22 87 44 142 39
28 -2 53 -6 55 -8z"/>
<path d="M3188 9383 c-50 -57 -114 -303 -79 -303 4 0 25 53 46 118 20 64 46
134 56 154 11 21 19 40 19 43 0 12 -28 4 -42 -12z"/>
<path d="M3217 9262 c-40 -44 -67 -167 -37 -167 9 0 23 23 36 60 12 33 26 72
32 86 16 40 -3 53 -31 21z"/>
<path d="M3252 9135 c-26 -19 -55 -109 -50 -157 5 -49 22 -40 30 15 4 29 16
59 32 78 24 28 36 79 18 79 -4 0 -17 -7 -30 -15z"/>
<path d="M3310 9068 c-39 -42 -63 -178 -31 -178 4 0 14 19 21 43 7 23 23 64
36 90 33 64 17 91 -26 45z"/>
<path d="M3375 8960 c-17 -33 -20 -96 -5 -105 6 -3 13 2 16 12 3 10 14 37 25
61 24 53 24 62 -1 62 -11 0 -26 -12 -35 -30z"/>
<path d="M3404 8855 c-47 -72 -62 -208 -16 -152 9 10 62 159 62 172 0 15 -32
1 -46 -20z"/>
<path d="M3410 8660 c-13 -24 -9 -96 4 -93 10 2 36 75 36 101 0 20 -28 14 -40
-8z"/>
<path d="M3487 8648 c-10 -8 -23 -43 -32 -86 -14 -68 -14 -75 2 -102 16 -29
16 -39 -6 -242 -52 -487 -84 -729 -191 -1448 -32 -217 -69 -433 -100 -590 -32
-160 -62 -369 -55 -380 11 -17 25 -11 35 15 12 33 47 196 65 305 7 47 27 166
44 265 94 544 185 1189 236 1684 13 128 27 236 31 240 3 3 13 -4 21 -16 9 -13
22 -23 29 -23 9 0 14 -12 15 -32 2 -51 13 -80 34 -92 27 -15 35 -27 35 -54 0
-12 8 -26 18 -29 27 -10 32 -24 32 -85 0 -51 2 -58 20 -58 17 0 18 -5 14 -47
-4 -34 -1 -54 9 -68 21 -27 27 -18 43 67 7 40 16 83 20 96 9 32 -19 29 -46 -5
l-22 -28 7 93 c7 80 6 92 -8 92 -9 0 -20 -8 -26 -17 -9 -17 -10 -17 -16 0 -4
9 -2 37 4 62 6 24 11 51 11 59 0 25 -26 19 -48 -11 -27 -37 -37 -24 -23 31 6
25 11 54 11 65 0 24 -22 28 -40 6 -30 -36 -45 -2 -25 56 8 23 15 43 15 45 0
10 -33 2 -57 -13 l-26 -17 6 39 c20 120 29 205 24 219 -8 19 -37 21 -60 4z"/>
<path d="M3935 8288 c-2 -7 -11 -76 -20 -153 -35 -312 -57 -488 -81 -645 -14
-91 -40 -273 -60 -405 -19 -132 -43 -291 -55 -354 -21 -117 -19 -161 6 -161
17 0 19 8 44 160 107 663 212 1485 197 1543 -7 28 -24 36 -31 15z"/>
<path d="M3810 7864 c-25 -65 1 -168 29 -115 12 21 15 100 5 125 -9 24 -23 19
-34 -10z"/>
<path d="M3946 7668 c-29 -44 -33 -158 -6 -158 17 0 28 33 35 108 7 76 -2 92
-29 50z"/>
<path d="M4008 7553 c-26 -59 -31 -158 -8 -158 16 0 36 63 46 153 9 67 -9 70
-38 5z"/>
<path d="M4345 7558 c-12 -35 -120 -735 -134 -873 -5 -44 -15 -116 -24 -160
-8 -44 -22 -141 -31 -215 -10 -74 -21 -153 -26 -175 -5 -22 -32 -168 -61 -325
-71 -397 -167 -866 -244 -1190 -104 -435 -99 -410 -86 -423 10 -9 16 -8 26 7
45 61 367 1600 390 1866 7 78 44 320 70 450 8 41 23 138 34 215 12 77 37 241
56 365 34 212 56 470 41 470 -4 0 -9 -6 -11 -12z"/>
<path d="M4076 7439 c-8 -12 -21 -47 -27 -76 -11 -46 -10 -56 3 -70 15 -14 17
-14 26 4 20 36 37 142 25 154 -8 8 -15 4 -27 -12z"/>
<path d="M4135 7310 c-19 -37 -20 -120 0 -146 13 -16 16 -17 25 -4 5 8 10 29
10 45 0 17 3 54 6 83 6 44 4 52 -9 52 -9 0 -23 -13 -32 -30z"/>
<path d="M4211 7190 c-5 -17 -13 -56 -17 -88 -5 -45 -3 -61 9 -70 11 -10 17
-10 25 0 15 19 34 133 26 162 -8 35 -30 33 -43 -4z"/>
<path d="M4316 6958 c-21 -52 -28 -111 -16 -143 8 -21 14 -25 22 -17 11 11 37
128 38 170 0 34 -29 27 -44 -10z"/>
<path d="M4407 6875 c-35 -34 -49 -152 -22 -175 9 -7 18 -10 22 -7 3 4 12 46
20 93 14 91 8 118 -20 89z"/>
<path d="M4445 6717 c-8 -13 -18 -58 -21 -100 -7 -73 -6 -77 14 -77 22 0 24 6
41 119 6 35 8 68 5 72 -9 15 -23 10 -39 -14z"/>
<path d="M4537 6629 c-46 -27 -77 -172 -41 -186 22 -8 34 14 34 62 0 22 9 55
20 73 32 52 26 74 -13 51z"/>
<path d="M4602 6533 c-35 -13 -62 -137 -35 -164 18 -18 23 -9 39 71 17 78 16
99 -4 93z"/>
<path d="M3671 6373 c-6 -27 -20 -104 -31 -173 -12 -69 -44 -231 -71 -360 -28
-129 -61 -291 -75 -360 -52 -262 -87 -423 -144 -660 -62 -259 -72 -320 -53
-327 12 -5 41 77 72 207 155 659 295 1310 312 1460 5 41 14 99 19 129 6 30 10
72 10 93 0 56 -25 50 -39 -9z"/>
<path d="M4802 6117 c-21 -25 -35 -107 -23 -133 15 -34 29 -22 37 34 3 26 10
55 15 64 9 17 2 48 -11 48 -4 0 -12 -6 -18 -13z"/>
<path d="M4864 6025 c-23 -36 -29 -105 -11 -130 20 -26 29 -15 38 43 3 26 10
62 14 80 6 26 4 32 -9 32 -8 0 -23 -11 -32 -25z"/>
<path d="M4934 5944 c-15 -37 -21 -124 -9 -143 3 -6 12 -11 19 -11 14 0 42
163 31 180 -12 19 -26 10 -41 -26z"/>
<path d="M5007 5863 c-37 -42 -52 -158 -23 -182 20 -17 25 -6 41 96 15 91 10
116 -18 86z"/>
<path d="M5084 5772 c-23 -15 -47 -78 -48 -126 -1 -45 2 -51 20 -54 19 -3 22
5 34 88 13 93 12 104 -6 92z"/>
<path d="M3035 5421 c-3 -5 -35 -140 -70 -300 -36 -160 -76 -330 -88 -379 -12
-49 -20 -100 -16 -113 4 -16 0 -31 -14 -46 -12 -14 -17 -28 -13 -40 7 -17 9
-16 27 5 25 32 49 110 109 367 67 284 108 487 103 503 -6 14 -29 16 -38 3z"/>
<path d="M5297 5366 c-41 -61 -47 -191 -9 -184 13 2 21 24 34 83 9 44 19 90
23 103 6 18 3 22 -13 22 -11 0 -27 -11 -35 -24z"/>
<path d="M5395 5240 c-14 -22 -55 -155 -55 -177 0 -20 3 -23 28 -17 35 9 42
20 42 69 0 22 4 57 9 77 6 27 5 40 -4 48 -9 8 -15 8 -20 0z"/>
<path d="M5436 5078 c-13 -63 -15 -90 -7 -110 13 -34 29 -36 36 -5 21 95 35
179 30 187 -3 6 -14 10 -23 10 -14 0 -21 -18 -36 -82z"/>
<path d="M5668 4833 c-41 -44 -57 -140 -27 -159 5 -3 9 -14 9 -25 0 -46 18
-12 38 74 33 141 29 162 -20 110z"/>
<path d="M4409 4663 c-6 -16 -26 -86 -45 -157 -19 -70 -36 -132 -39 -136 -16
-26 -74 -265 -66 -273 17 -17 41 39 101 243 72 243 91 317 83 336 -8 22 -23
16 -34 -13z"/>
<path d="M5742 4665 c-26 -33 -36 -91 -22 -126 12 -28 35 -44 44 -30 8 12 25
164 20 173 -9 14 -22 9 -42 -17z"/>
<path d="M5844 4562 c-19 -13 -32 -46 -39 -103 -4 -34 -3 -59 3 -63 24 -14 71
78 72 142 0 31 -12 40 -36 24z"/>
<path d="M2803 4447 c-6 -12 -30 -97 -53 -187 -23 -91 -57 -221 -76 -289 -19
-69 -34 -137 -34 -152 0 -15 -4 -31 -10 -34 -15 -9 -13 -58 3 -53 17 6 46 94
128 383 76 271 92 355 67 355 -8 0 -19 -10 -25 -23z"/>
<path d="M6027 4327 c-27 -20 -36 -58 -23 -97 14 -43 41 -51 50 -15 4 15 4 35
1 45 -3 11 -1 28 4 39 14 26 -8 46 -32 28z"/>
<path d="M3215 4237 c-19 -46 -55 -186 -55 -214 0 -32 17 -29 35 8 20 38 55
173 55 211 0 38 -18 35 -35 -5z"/>
<path d="M6094 4202 c-7 -4 -17 -26 -23 -49 -12 -45 -1 -87 25 -97 14 -6 19 9
27 79 3 22 6 46 8 54 4 17 -20 25 -37 13z"/>
<path d="M6183 4102 c-37 -24 -62 -202 -29 -202 37 0 46 12 46 60 0 26 7 67
15 90 19 54 6 76 -32 52z"/>
<path d="M4776 3888 c-43 -118 -114 -343 -110 -350 11 -17 25 -6 48 41 28 54
108 330 100 343 -11 17 -23 6 -38 -34z"/>
<path d="M4182 3887 c-5 -6 -15 -30 -22 -52 -7 -22 -18 -49 -25 -61 -21 -33
-47 -133 -40 -151 5 -15 8 -15 24 3 19 19 62 140 80 222 9 43 1 62 -17 39z"/>
<path d="M3106 3849 c-9 -22 -19 -68 -22 -102 -5 -58 -4 -61 10 -42 22 27 60
149 53 169 -10 26 -24 18 -41 -25z"/>
<path d="M6344 3779 c-12 -14 -19 -40 -22 -83 -4 -63 11 -117 28 -100 9 10 50
165 50 189 0 22 -34 19 -56 -6z"/>
<path d="M6435 3700 c-10 -16 -45 -122 -45 -135 0 -15 48 -26 56 -13 8 13 33
118 34 141 0 18 -34 24 -45 7z"/>
<path d="M4077 3549 c-45 -69 -137 -312 -123 -326 10 -11 17 3 86 173 58 147
74 210 37 153z"/>
<path d="M4407 3463 c-12 -20 -86 -204 -102 -251 -18 -57 -17 -66 7 -57 23 9
125 300 108 310 -5 3 -11 2 -13 -2z"/>
<path d="M4750 3408 c-11 -24 -20 -50 -20 -59 0 -8 -13 -55 -30 -103 -48 -144
-84 -296 -71 -309 7 -7 12 -6 15 4 3 8 13 34 22 59 8 25 19 68 24 97 4 28 15
64 23 80 37 66 84 273 63 273 -4 0 -16 -19 -26 -42z"/>
<path d="M6125 7163 c-11 -28 -17 -462 -6 -437 10 23 28 454 19 454 -3 0 -9
-8 -13 -17z"/>
<path d="M5906 6673 c-3 -10 -15 -115 -26 -233 -12 -118 -24 -241 -27 -272 -3
-31 -3 -65 1 -75 15 -38 27 17 46 204 28 284 34 380 22 387 -6 3 -13 -2 -16
-11z"/>
<path d="M6159 6505 c-10 -14 -33 -344 -26 -352 11 -11 17 1 27 59 11 59 10
310 -1 293z"/>
<path d="M6011 6270 c-28 -126 -63 -680 -43 -680 17 0 28 110 53 511 13 208
10 259 -10 169z"/>
<path d="M6116 6018 c-17 -111 -35 -438 -27 -488 l8 -45 6 35 c24 132 46 530
29 530 -6 0 -13 -15 -16 -32z"/>
<path d="M5887 5968 c-3 -18 -8 -73 -11 -123 -6 -88 -5 -89 10 -56 19 41 32
211 17 211 -6 0 -13 -15 -16 -32z"/>
<path d="M8627 4477 c-6 -17 15 -144 49 -285 36 -152 116 -519 154 -703 35
-168 41 -186 60 -174 9 5 10 23 6 59 -12 90 -130 636 -222 1028 -16 68 -37
101 -47 75z"/>
<path d="M8300 4449 c0 -28 41 -271 50 -293 9 -26 24 -33 34 -18 4 7 -29 176
-59 300 -5 22 -25 31 -25 11z"/>
<path d="M9427 4434 c-13 -14 -7 -51 23 -132 16 -45 48 -149 70 -232 22 -83
45 -160 50 -171 13 -24 30 -25 30 -1 0 15 -52 209 -119 446 -19 67 -40 103
-54 90z"/>
<path d="M9096 4242 c-7 -12 130 -540 145 -559 21 -25 30 1 19 53 -15 73 -110
434 -123 473 -12 35 -31 50 -41 33z"/>
<path d="M8370 4074 c0 -22 6 -49 14 -60 14 -18 15 -18 21 -1 9 21 1 56 -19
82 -15 19 -15 18 -16 -21z"/>
<path d="M9620 3701 c0 -15 18 -99 41 -187 22 -87 48 -192 59 -233 18 -73 42
-109 48 -72 4 22 -45 237 -89 398 -30 109 -59 155 -59 94z"/>
<path d="M6524 7088 c4 -57 13 -175 21 -263 30 -343 36 -430 45 -730 5 -170
16 -398 24 -505 8 -107 18 -383 22 -613 5 -296 10 -417 18 -414 6 2 15 46 20
98 11 110 -7 764 -29 1049 -8 102 -14 246 -15 320 0 203 -39 750 -70 985 -11
83 -20 156 -20 163 0 6 -5 12 -11 12 -8 0 -10 -29 -5 -102z"/>
<path d="M6841 3187 c-41 -21 -46 -39 -27 -103 19 -69 57 -146 74 -152 15 -5
78 64 93 101 9 21 9 31 1 39 -7 7 -13 10 -15 7 -37 -52 -60 -79 -68 -79 -14 0
1 130 18 157 8 12 12 27 8 33 -8 14 -55 12 -84 -3z"/>
<path d="M6975 2989 c-14 -22 -25 -151 -14 -171 16 -30 52 -19 64 19 6 18 21
46 34 63 l23 31 -39 34 c-40 36 -57 42 -68 24z"/>
<path d="M7087 2850 c-22 -25 -47 -103 -47 -144 0 -7 11 -22 23 -35 29 -26 39
-17 56 45 6 23 18 47 26 54 19 16 19 34 0 50 -8 7 -15 21 -15 31 0 31 -17 30
-43 -1z"/>
<path d="M4381 2444 c-41 -52 -36 -160 7 -152 12 2 19 18 23 55 4 28 10 56 13
62 8 13 -3 61 -14 61 -5 0 -18 -12 -29 -26z"/>
<path d="M1924 1836 c-15 -38 7 -41 354 -48 519 -11 1319 -5 1333 9 19 19 -35
21 -701 33 -344 6 -705 14 -802 17 -162 5 -178 4 -184 -11z"/>
<path d="M1847 1615 c-10 -9 -16 -22 -14 -29 6 -19 1177 -9 1196 10 18 18 -57
24 -310 24 -157 0 -414 3 -570 7 -264 6 -286 5 -302 -12z"/>
<path d="M10199 1775 c-3 -3 -43 -9 -90 -14 -46 -5 -156 -23 -244 -40 -88 -16
-212 -37 -275 -46 -110 -15 -571 -59 -790 -75 -131 -10 -358 -40 -387 -51 -13
-5 -23 -15 -23 -24 0 -21 39 -20 456 10 339 25 549 49 879 100 88 14 214 29
280 35 66 5 135 12 153 16 33 7 58 33 64 68 3 18 -12 32 -23 21z"/>
<path d="M10049 1589 c-71 -16 -318 -49 -559 -74 -135 -13 -272 -29 -305 -34
-33 -6 -136 -17 -230 -26 -93 -9 -206 -25 -250 -35 -45 -11 -95 -20 -113 -20
-18 0 -32 -5 -32 -11 0 -12 94 -8 350 12 69 6 195 14 280 19 297 17 681 62
838 100 23 5 53 10 66 10 28 0 76 35 76 56 0 16 -60 18 -121 3z"/>
<path d="M9970 1434 c-63 -8 -214 -27 -335 -43 -277 -38 -329 -44 -385 -46
-25 -1 -90 -7 -145 -13 -55 -6 -181 -18 -279 -27 -99 -9 -184 -19 -188 -22 -5
-3 -2 -14 8 -24 15 -16 32 -19 123 -19 129 0 541 41 746 74 251 41 355 55 469
60 94 5 113 9 133 28 13 12 23 27 23 35 0 15 -14 15 -170 -3z"/>
<path d="M9915 1270 c-287 -40 -461 -60 -615 -71 -74 -6 -178 -16 -230 -24
-53 -8 -115 -15 -138 -15 -29 0 -42 -4 -42 -14 0 -26 47 -46 107 -46 125 0
506 44 908 105 88 13 181 26 207 30 48 6 103 39 93 56 -9 14 -74 9 -290 -21z"/>
<path d="M555 1120 c-16 -4 -69 -24 -117 -44 -160 -67 -272 -86 -382 -65 -27
6 -31 -16 -7 -40 43 -43 251 -17 397 49 l66 30 244 2 c209 3 244 5 242 18 -2
8 -21 25 -43 37 -37 21 -51 23 -205 22 -91 -1 -178 -5 -195 -9z"/>
<path d="M3985 609 c-86 -26 -111 -30 -177 -25 -56 4 -79 2 -87 -8 -25 -29 13
-58 89 -68 21 -3 18 -6 -19 -18 -89 -30 -78 -77 14 -64 95 15 166 9 245 -20
41 -15 102 -31 135 -36 33 -5 72 -13 86 -19 23 -8 29 -6 48 20 32 43 61 46
110 11 46 -34 76 -41 211 -52 67 -5 113 -15 156 -33 93 -40 189 -52 312 -37
167 20 140 1 -58 -40 -133 -27 -249 -40 -357 -40 -95 0 -118 -11 -65 -31 35
-14 165 -6 342 21 147 22 411 92 640 168 80 26 151 50 159 53 9 2 17 -5 20
-20 15 -56 103 -81 289 -81 90 0 109 -3 154 -26 59 -30 161 -54 233 -54 69 0
95 -9 95 -31 0 -32 70 -69 151 -81 89 -12 178 -3 186 19 9 23 -16 33 -92 34
-84 2 -127 10 -132 25 -6 17 21 24 120 35 100 10 157 30 157 55 0 14 -7 16
-47 10 -231 -32 -548 2 -652 71 -21 14 -46 16 -136 14 -73 -1 -137 3 -190 14
-85 18 -109 30 -101 52 9 22 -35 16 -249 -32 -269 -60 -360 -75 -490 -82 -130
-7 -188 4 -289 51 -54 26 -90 35 -151 40 -110 9 -148 21 -183 57 -35 36 -47
36 -148 -2 l-62 -23 -116 19 c-63 10 -120 22 -127 26 -17 10 -5 24 59 71 126
93 99 111 -83 57z"/>
<path d="M834 599 c-111 -58 -129 -66 -176 -78 -85 -20 -274 -30 -468 -24
-172 6 -190 5 -190 -10 0 -9 12 -25 27 -34 23 -15 56 -19 229 -22 301 -5 451
19 562 91 l63 41 47 -24 c37 -19 67 -25 137 -27 83 -3 92 -6 120 -32 84 -80
227 -110 527 -110 207 0 248 6 248 34 0 19 -46 26 -169 26 -118 0 -354 23
-416 41 -67 19 -130 56 -158 92 -26 34 -26 34 -79 25 -65 -12 -126 -5 -178 22
-51 26 -57 26 -126 -11z"/>
<path d="M11397 584 c-15 -8 -43 -26 -62 -39 -67 -45 -220 -88 -560 -157 -27
-5 -61 -7 -76 -4 -23 4 -27 1 -32 -24 -7 -35 -80 -73 -175 -91 -86 -16 -287
-8 -329 14 -40 21 -97 22 -113 2 -16 -20 -13 -23 57 -51 97 -40 157 -47 359
-42 167 4 196 8 251 28 l61 23 49 -20 c26 -11 73 -26 103 -33 30 -7 71 -21 91
-32 30 -15 46 -17 97 -10 47 7 62 6 62 -4 0 -13 -22 -24 -50 -24 -24 0 -36
-18 -21 -33 7 -7 49 -21 94 -33 45 -11 111 -29 147 -39 135 -37 505 3 655 71
28 12 103 36 168 53 175 45 277 95 250 122 -6 6 -33 -1 -77 -21 -133 -60 -317
-101 -620 -136 -324 -37 -347 -39 -371 -20 -31 24 -6 33 114 41 297 17 542 56
723 115 87 29 140 61 126 76 -4 3 -46 -8 -95 -24 -109 -38 -294 -84 -435 -110
l-107 -19 -32 33 c-38 39 -34 56 18 83 21 10 78 53 126 95 49 42 96 80 105 85
28 16 2 30 -74 41 -187 25 -263 39 -282 49 -11 6 -35 11 -52 11 -19 0 -38 8
-48 20 -16 18 -19 18 -45 4z m153 -123 c0 -24 -358 -215 -425 -226 -16 -3 -36
-1 -44 4 -24 15 2 37 82 67 40 15 98 40 129 56 31 15 59 28 63 28 3 0 24 12
47 26 67 43 148 67 148 45z m158 -18 c-3 -25 -16 -34 -108 -80 -112 -55 -292
-129 -325 -135 -48 -7 -21 21 61 63 49 26 118 62 154 81 208 113 224 118 218
71z m-648 -72 c-57 -45 -211 -74 -245 -47 -20 15 -20 15 3 16 13 0 33 5 45 12
28 15 130 36 182 37 l40 1 -25 -19z m80 -27 c0 -7 -107 -54 -125 -54 -31 0
-13 18 38 38 53 20 87 27 87 16z m-380 -24 c0 -21 -49 -60 -75 -60 -34 0 -29
18 15 48 35 24 60 29 60 12z"/>
<path d="M9540 554 c-262 -97 -739 -164 -847 -119 -47 20 -56 19 -48 -6 4 -13
1 -27 -10 -39 -27 -30 -163 -82 -230 -87 -45 -4 -66 -11 -85 -29 -15 -14 -56
-32 -100 -43 -187 -47 -665 -73 -756 -39 -26 9 -57 12 -90 9 l-49 -6 33 -18
c17 -9 47 -25 65 -35 28 -15 59 -17 232 -16 289 1 586 38 719 89 90 34 283 95
301 95 8 0 41 -15 73 -32 57 -33 57 -33 184 -31 84 2 153 -2 199 -12 136 -29
276 -17 471 39 l81 24 33 -20 c41 -24 72 -20 229 28 275 84 435 156 468 212
11 18 28 37 39 43 14 7 17 14 10 21 -21 21 -208 -40 -199 -65 2 -6 18 -12 35
-12 18 0 32 -3 32 -7 0 -24 -436 -181 -538 -194 -88 -12 -27 21 131 70 197 61
261 87 265 109 6 29 -26 31 -67 4 -58 -38 -419 -147 -521 -158 -47 -4 -96 -11
-109 -15 -18 -5 -23 -4 -19 7 2 8 24 19 49 26 428 118 499 142 499 164 0 19
-27 19 -74 -1 -60 -25 -73 -25 -81 1 -5 15 -13 20 -28 16 -12 -3 -132 -28
-267 -56 -135 -27 -309 -64 -388 -81 -146 -31 -226 -38 -237 -20 -7 11 -3 12
175 40 294 47 559 132 535 171 -8 12 -7 12 -115 -27z m215 -93 c-25 -24 -443
-130 -540 -138 -159 -12 -4 36 345 108 210 43 207 42 195 30z"/>
<path d="M8170 540 c-23 -14 -3 -27 70 -46 45 -11 86 -15 132 -11 68 6 132 30
126 49 -5 13 -308 21 -328 8z"/>
<path d="M3461 202 c-135 -29 -170 -52 -79 -52 58 0 214 34 235 51 16 14 8 29
-15 28 -9 0 -73 -13 -141 -27z"/>
</g>
</svg>
